<svg xmlns="http://www.w3.org/2000/svg" fill="none" viewBox="0 0 598 113"><path fill="#fff" d="M104.943 74.3165c0 .0649.065.0649.065.1298 0 0-.065-.0649-.065-.1298Zm-.065-.1299.065.0649c-.065 0-.065-.0649-.065-.0649Z"/><path fill="#fff" d="M104.422 73.4078c-1.107-1.9471-1.238-11.7478-5.537-9.8656 2.084-4.0241-15.5037-9.4112-18.4351-10.5795 3.9736-.9736 8.8592-1.9472 11.3998-5.4521 1.8239-2.4664 4.9507-4.6731 5.6673-7.7237 2.0845-8.8271 2.801-15.9018-3.6479-23.1062-5.0811-5.7117-19.2168-7.85358-26.187-6.0362-1.6285.0649-11.9209 1.2981-11.7255 1.7524-2.0845.5842-9.6409 1.4928-9.5106-.1298-3.7782.3245-6.5793-.7789-10.553-1.4279-1.7588-1.49283-2.2799 1.5577-2.0194 2.3366.456-.3895.3257-.1298 1.0423-.0649 0 0-.0651.0649-.1303.0649.6514 1.0385 2.9314.9086 3.7131 1.5577-.5211 2.6611 1.3028 1.8823 2.2799 3.8294 1.0423 2.2068-1.1725 4.6732 2.4754 5.7766.0652 3.5698-.1303 7.1395.0652 10.6444-1.368.6491.8468 13.046.3908 14.7335-.8468 3.1155-.6514 6.3607-.6514 9.6709 0 4.2837-1.5634 12.9161.2606 16.7455-.1955 3.5049-.1955 7.0747-.1955 10.6445-2.0193.5192-1.1725 4.6732-1.7588 5.9064-1.6937 3.375-3.7131 3.375-6.7747 3.9592-4.8856.9736-9.9015 2.8558-14.6569 4.4781-3.2571 1.104-5.7324 2.207-8.7941 3.57-.7165.325-9.05467 3.31-4.5599 4.738 2.99651.909 15.9597-8.308 16.2854-7.204 14.8523-5.9066 30.0954-2.077 45.534-2.077 5.0159.973 12.3769-.5195 17.5882-1.3632 1.8891 1.3632 8.1427-3.8943 9.185-4.6083 5.2111-2.3366 13.1581-13.8897 9.2501-20.7697ZM64.0342 13.5652c11.2044-.0649 20.5196 2.0121 23.3207 13.3056 2.6057 10.4497-2.5405 21.2889-13.2238 23.95-4.7553 1.1683-11.074-.5192-15.5037-2.2068-5.6021-2.0769-6.1884-4.3486-6.1884-9.7358.7165-9.7357-.3257-22.7817 11.5952-25.313Zm28.532 69.1241c-.7165 7.9184-9.0547 11.7478-15.5688 13.8897-5.3416 1.7524-12.3769-.1947-16.546-3.6347 1.0423-.5192-1.9542-4.2837-2.8011-4.6732-2.0845-.9087-4.2993-.5841-4.4948-3.8294-.2605-3.8943-.6514-7.7237-.6514-11.8776V58.6743c0-2.4664.0652-4.9328.1303-7.3992.1954-5.5818 6.8399 1.7525 9.5107 1.8174 2.9965.0649 6.1233 1.2332 9.1198 1.7524 4.9508.9736 11.3998 2.2717 16.0249 5.3223 7.1655 4.738 5.9278 15.058 5.2764 22.5221Z"/><path fill="#fff" d="M105.073 74.5761c.066.0649 0 .0649 0 0Zm-.586-1.1034s0-.0649-.065-.0649c0 0 0 .0649.065.0649Zm.391.7789c.065.0649.065.0649 0 0ZM104.617 73.6674c.066.0649.066.1298.131.1947-.065 0-.131-.0649-.131-.1947ZM535.725 96.7088c-10.162 0-7.817-9.2166-7.883-16.8754 0-6.9448 1.629-18.1734-1.172-24.3394-1.629-4.9977-9.12-11.6181-14.527-11.6181-1.693 0-4.429 4.2838-5.862 5.3223-3.583 2.6611-8.338 5.0626-11.27 8.7622.196-1.2332-.26-1.9472-.456-2.6611h.065c0-1.1683-1.303-4.4785-1.433-4.7381-1.498-.4544-6.514-3.8294-6.644-5.1275-1.889.8437-2.411 3.0505-3.192 3.8294-.912.3245-6.254 3.7645-5.146 4.6082 4.169.0649 7.686-1.6875 9.119 4.2189-.586-.0649-.26 22.8466-.26 25.7025 0 4.9977.847 10.0603-5.081 12.0074-.782.2596-9.641 1.2981-6.189 3.7645 2.541-.0649 7.166-1.5577 8.86-1.363 4.169.4544 8.403-.0649 12.898.4544.521.9735 5.602.8437 6.84.4543 1.563-1.8823-4.756-2.9857-5.928-3.6996-4.756-3.1155-2.541-15.9018-2.541-20.7697 0-4.8679-2.019-11.7478 1.824-15.772v.1948c.782-.0649 2.931-1.4929 2.931-2.2717 0-1.1034 2.932-1.2332 3.779-1.6227 4.104-1.6226 9.12-1.1033 12.051 2.0121.13 1.2332 1.694 5.3222 2.41 6.4256.261 1.6876 0 3.5698 0 5.2573l.065 15.9018c.065 3.1155.652 6.0362-1.824 8.1781-2.084 1.7524-4.299 3.5049-7.1 3.9592-1.954.3245-.586 2.7909 1.107 2.4015 1.238 1.363 14.787-.1298 17.132-.2596 2.802.0649 9.707 2.1416 7.427-2.3366.456.8438-.782 0 0 0Zm-46.381-42.3182c-.065-.1298-.196-.2596-.261-.4544.065.1299.196.2597.261.4544Zm-4.951-5.7766c0 .0649-.065.1298-.065.1947-.13-.1298-.065-.1947.065-.1947ZM373.327 75.2252c2.605-.7789-2.606-15.7071-2.932-18.1735-.912-.1298-.065.3245-.391.6491-4.038-5.7766-7.556-12.9162-14.982-14.7335-1.238-.3246-6.384-.1948-9.25-.3895-.977.0649-2.02.1298-2.997.2597-.195.2596-.716 0-1.303.1947.261.4543-.065.1947.326.3894-4.299 1.0385-8.468 3.8294-11.4 7.1396-.195-8.892.391-18.3682-.716-27.1953 0-4.4785-.521-9.4113 1.368-13.63011 1.433-3.18036 6.058-3.18036 6.188-6.87996-5.732 0-11.53 6.166-13.419 11.03387-2.475 6.2958-5.537 7.6588-11.4 9.5411 1.042 2.2717 5.081 1.7524 6.645 2.726 1.889-.7139 1.824 12.4618 1.824 14.7984 0 2.6611.195 19.3418.521 19.3418 1.498 2.726.065 10.8391.13 13.8897.195 6.8799 1.107 16.6806-3.843 22.2625-.652.7788-5.277 2.3366-3.453 3.6348 1.173.844 8.925-1.8824 10.879-1.9473 4.951-.1298 9.38.9087 14.266 1.9473 9.51 1.947 21.692-2.0771 27.946-9.6061 2.28-2.7909 7.426-11.7479 6.188-15.058-.13 0-.13-.0649-.195-.1947Zm-50.42-49.3929c.326-.1298.651-.3894.847-.6491-.13.5842-.196.8438-.847.6491Zm3.127 31.2194v.3245c-.131-.1298-.131-.1947 0-.3245Zm37.912 22.3923c-.521 3.5698-2.149 12.0075-6.644 13.4354.195.649-5.407 2.2717-5.733 2.4015-4.885 1.363-9.706 1.8173-14.461.0649-7.491-2.7909-5.993-11.683-6.84-18.1086-.651-5.1275.521-10.3199.391-15.3176-.196-6.88.651-7.6588 6.123-11.4233 9.706-6.6853 22.865 4.0241 25.731 12.7214 1.759 5.2573 2.15 11.1637 1.433 16.2263Z"/><path fill="#fff" d="M337.824 97.6175c1.564.3245.652.0649 0 0Zm14.332-48.7438c-.522.1947-.522-.2597 0 0Zm-35.568 48.7438c0 .0649 0 .0649 0 0ZM471.56 47.4457c-2.801 3.1804-8.077 5.517-9.771-1.1682-.782.2596-.261.649-.977 0-3.388.9086-7.296 6.2309-12.963 4.089-.456-2.0121-6.645-2.6611-7.166-4.9977-2.085.2596-1.107 1.4279-1.824 1.8173-2.15 0-3.778 1.9472-5.146 3.3102-4.039 3.8943 5.537 4.3486 7.491 6.9449 2.736 3.5697.782 11.0987.782 15.3825 0 8.8271 4.169 23.6255-8.664 23.3659-.13 3.8294 13.484 1.8173 16.155 1.8822 2.801.0649 5.798.9087 8.534.714-.456 0 1.824-1.1683.912-1.1034-.196-2.0121-3.844-1.0385-5.016-2.077-1.889-1.6875-2.476-4.4784-2.736-6.8799-.587-5.6468-2.215-33.8157 4.169-32.5175 4.56.9086 4.82 6.4905 9.315 2.2716 2.801-2.6611 7.622-7.0746 7.947-11.2286-.521-.1947-.912-.1947-1.042.1947Zm-21.106 48.3544c.065 0 .065-.0649.065-.0649.065.0649 0 .1299-.065.0649ZM238.939 63.5422c-1.693-.649-2.084-4.4784-3.322-6.0361-1.889-2.4664-6.449-7.2694-9.576-7.9834-3.192-2.012-8.924-5.6467-13.093-4.4135-1.042.3245-.651 3.6347-1.238 4.5433-.781.8438-10.357 4.9977-10.292 5.9713-4.104.8438-8.078 9.3464-9.055 12.8512-.521 1.9472-.456 4.3487-.326 6.2958.196 7.7238 4.495 14.1494 10.684 19.2769 2.54 2.1419 14.982 9.5413 16.806 6.9453 1.433-1.2985 1.694-4.0895 2.671-5.7121.651-1.1034 2.736-1.2332 3.909-1.6875 5.341-2.2068 8.729-6.0362 11.725-10.9041 2.541-4.2189 4.169-14.7984 1.107-19.1471.587.7789-.325-.1298 0 0Zm-5.211-.9735h.065c-.065.0649-.065 0-.065 0Zm-.977 15.9666c-1.368 2.2717-1.433 5.7766-3.062 8.3728-.521.8438-2.736 2.7909-3.648 3.1155-4.104 1.4279-6.774.1298-9.836.1298-7.426 0-18.565-9.5411-18.5-17.9139.065-6.101 1.824-11.8776 7.556-15.3825 5.928-3.5698 13.485-.649 18.891 2.9207 3.779 2.4664 6.124 3.8294 7.231 8.4377.847 3.2453 3.387 6.8151 1.368 10.3199Zm349.485-33.5559h1.498v4.3486h1.238v-4.3486h1.498v-1.0385h-4.234v1.0385Zm9.51-1.0385-1.237 3.5048-1.238-3.5048h-1.824v5.3871h1.238v-4.1539l1.368 4.1539h.912l1.368-4.1539v4.1539h1.237v-5.3871h-1.824ZM136.276 98.656c0-.5842-.065-.8438-.391-.3246-.521-.9086-2.736-1.4928-2.931-.5192-5.537-1.1034-6.84-5.5169-6.579-10.6445.13-2.5313-1.433-19.3417-.391-19.796.065-4.4785-.652-9.6709-.456-14.0845-.065-1.363-.391-18.9523.065-19.0821-.912-1.7525.13-7.0098.195-8.6973.066-2.5962-.195-5.1924-.195-7.8535 0-2.6612 0-4.4785.847-7.0098.651-1.88226 7.687-5.84148 6.579-7.39921-1.303-3.634688-10.097 5.77657-11.53 7.85351-1.563 2.3366-2.28 4.5434-3.583 7.0747-2.214 4.2188-5.211 3.7645-9.185 4.803.261 3.6347 7.492.8437 7.557 6.5554l.456 18.6278c-.847.1947.456 13.1758.456 16.2263 0 6.4905 2.931 33.1017-3.322 34.6594v.5192c2.801-.0649 5.862-.5192 8.859-.5192 3.452 0 6.97.7789 10.422.9087 1.368-.1298 5.603-.1947 3.127-1.2981Z"/><path fill="#fff" d="M132.889 99.8892c-.196 0-.261-.0649 0 0ZM186.435 73.6025c0-6.4256-1.368-12.7214-5.862-17.7191-3.583-3.9593-19.152-15.9018-23.256-7.9185-2.801 5.4521-7.882 5.7117-11.921 10.3199-2.084 2.3366-3.778 4.9328-5.276 7.6589-.196.3894-1.629 5.8414-1.564 5.8414-3.843 1.6227 3.713 14.4739 5.212 16.2912.39 4.2838 10.748 10.8392 14.722 10.969.716 1.8827 5.732 2.6607 7.035 2.9207 1.498-6.815 9.966-9.2165 14.917-13.5002 2.476-2.4015 8.338-11.3584 5.993-14.8633ZM170.41 90.5427c-.26.2597-.39.3246-.39.065-.782.3894-4.104.9735-4.625 0-3.192 0-5.863-1.1683-8.469-2.9208-.847-.5841-4.43-2.7909-5.146-2.7909-2.41 0-6.645-7.6588-7.231-9.8656-1.107-4.2837-.716-6.9449 1.108-10.7743 3.126-6.6852 9.445-10.5795 16.611-8.6973 4.755 1.2332 16.09 7.1396 16.22 11.8128.13.4543 0 1.1683 0 1.6875.912-.4543 1.759 5.9713 1.824 5.517-.13 5.452-5.211 13.3704-9.902 15.9666 1.759-.9735-.13.0649 0 0Zm137.124 7.5291c-10.684-.5193-7.883-15.4475-7.427-20.8346-.716-9.8007-1.368-19.2769-.846-29.0776.521-10.5146-1.759-24.7289 2.019-34.5945 1.303-3.4399 4.43-4.60823 6.254-7.46406 3.061-4.80299-2.606-.77886-4.626-.77886-.456-.77887-5.537 5.45202-5.927 5.97132-1.89 2.4015-3.974 4.6082-5.798 7.4641-1.303 1.9471-8.143 2.8558-8.468 4.1539-.391 1.4928 2.019 1.5577 2.67 1.8173 5.342 1.9472 4.3 5.4521 4.691 10.5796.325 4.9977.846 11.0339.716 15.1229-3.257-2.2068-5.407-2.9856-6.123-6.1011-.065 1.0385-.977 1.4928-.847 1.6876-8.338-4.7381-17.979-4.4136-26.708.5841-6.775 3.8943-9.446 9.3464-11.53 16.3561-1.042 3.5049-1.173 7.3343-.456 10.9041.782 3.7645 3.973 7.3992 4.234 11.0339 3.583 6.2309 9.836 11.0339 15.829 14.2142 1.173.6491 6.84 3.4398 6.971 1.3628 2.28-4.608 11.074-9.9303 16.676-9.411-.261 1.0385-3.909 7.1396-3.843 7.2694-.978.3245-1.434 1.2332-.587 2.0766 1.368 1.363 7.557-.194 9.381-.259 2.866 0 7.23 1.038 9.771.259 1.303.065 2.606.13 3.908.26 1.629.065 1.694-2.5313.066-2.5962 1.693.0649-.131 0 0 0Zm-43.189-49.9771c8.012-3.6347 22.278-.7139 25.34 8.5026.847 2.5313.26 7.4641.13 10.9041-.065 1.6875.456 6.4256-1.889 6.2958-1.238-.0649.651 5.0626 1.368 5.7117.26 6.6203-3.257 7.9833-9.641 9.6059-6.775 1.7525-13.81-.2596-18.37-5.5818-5.081-5.9713-7.296-14.6037-5.407-22.3923.782-3.3102 2.15-6.6204 4.169-9.3464.587-.7788 4.365-3.5698 3.388-3.8294.521-.5841.846-.5841.912.1298 1.433-.649-.066-.1947 0 0Zm-5.863 4.2189c.065.1947 0 .1947-.13.1947.065-.1298.065-.1298.13-.1947Zm4.104 42.2533c.13-.1948.326-.1299.521.1298-.195.0649-.391.0649-.521-.1298Zm1.759 1.0385v-.1948c.195.0649.325.1948.456.3246-.196 0-.326 0-.456-.1298Zm1.107.5841c.065.0649.13.0649.13.1298-.13 0-.195-.0649-.13-.1298.065.0649 0 .0649 0 0Zm6.645-.2596c0 .0649 0 .0649 0 0Zm15.308-71.7203h-.717c.456-.4543.652-.4543.717 0Zm139.598 39.9816c-.13-1.8822-4.755-6.3607-3.908-7.6588.521-.7789.456-3.3102-.587-2.2717-1.302 1.2332-4.95-3.6996-5.276-4.7381-2.736 1.1683-4.821-.5841-7.296-2.5962-2.084-2.2716-1.759-.9736-4.104-2.0769-4.169-1.8823-5.928.649-6.319 4.6731-1.433 2.2068-4.95 2.9208-7.165 3.9593-3.192 1.5577-5.146 3.6996-7.361 6.2958-.261.8437-1.173 1.7524-1.759 2.4664-1.759 1.2332-2.475 4.4135-3.062 6.5554-1.107 4.089-1.172 10.7094 1.173 14.9931 1.824 3.44 4.625 5.0626 7.296 7.7237h-.261c.521 1.2332 1.694 1.4279 2.02 1.8174-.066 0-.131 0-.196.0649 1.433 2.4664 6.645 4.8679 8.99 6.0362 1.237.5842 7.621 5.1922 7.491.7792.977-2.0774.195 1.298 2.019-2.8562.717-.8438 2.215-1.8823 2.541-3.0505 6.905-3.2453 12.247-5.7766 15.048-14.2143 0 .0649.065.1298.065.2596 3.387-2.2068 1.563-13.3705.651-16.1614.912 2.5962-.065-.1298 0 0ZM388.7 60.8161c.326-.0649 3.648-3.3101 2.996-3.375.652-.4544 1.434-.8438 2.15-1.1683.391.3245.521.3245.326-.1298 7.231-3.1804 15.829.9086 20.519 6.4256h-.195c.326 1.0385 1.694 1.8822 2.28 2.8558 1.694 2.726 2.41 5.517 2.475 8.6973.065 4.0241.196 8.5675-1.824 12.2022-6.905 6.2958-15.438 4.9977-22.604-.4543-2.215 1.2332-8.533-9.1517-8.989-10.9041-.587-2.2068-.847-7.1396-.261-8.5026.586.5842.391-.1298.261-.649.065-.065.065-.1299.13-.2597 0 1.0385.847-1.2332.912-1.6226.391-.6491.521-.3245.521-.9087l1.303-2.2068c.13 0-.456.7789 0 0Zm192.559 26.8708c-1.955-2.1419-8.729 3.8943-11.661 3.9592-.781.0649-1.563 0-2.28-.3894-2.671-1.7524 1.108-1.8823-3.322-1.4928-3.518.2596-7.166-1.363-9.315-3.3102.716-.0649 0-.7788-.261-.9087.586-2.2067 2.28-4.2837 4.3-6.1011-.196-.5192 13.158-10.0603 13.158-12.3319 0-1.8823 7.426-5.517 6.97-6.7502 5.668-4.6083-1.498-6.815-5.732-9.8007-2.02-1.4279-4.104-2.2068-6.449-3.3101-.977-.4544-5.928-2.4015-6.97-1.8823-5.081 2.726-10.423 6.4905-14.006 9.8656-2.996.1947-6.97 8.3079-7.165 10.1252-.456 1.1034-.717 4.5434-.912 5.6468.26.5841 1.172 1.9471 0 1.8173.195 1.4928 1.237 9.0218 2.28 8.6324.586 1.2981 3.322 7.2694 3.452 6.4256.326.5842.717 1.1683 1.042 1.7525h-.195c1.498 3.5049 7.231 6.166 10.292 7.9184 2.411 1.363 5.993 1.5577 8.664 2.1419 1.759.3896 3.518.7786 5.081 1.5576 1.629-.973 3.192-2.0769 4.56-3.375 1.629-3.7645 11.139-8.178 8.469-10.1901Zm-33.744-9.1516c-2.019-6.7502-3.452-15.5773 1.042-21.7433 5.798-7.9833 19.282-4.4135 23.256 3.9592h.195c-1.368 2.077-11.204 13.1758-11.334 12.9162-2.997 2.4015-5.602 5.1275-8.338 7.7237-2.476 2.3366-4.234-.9087-4.821-2.8558Z"/><path fill="#fff" d="M558.85 91.9707c0 .0649-.065.0649-.065.1298-.065-.1298 0-.1298.065-.1298-.065 0-.065 0 0 0Z"/></svg>