<svg width="250" height="250" viewBox="0 0 250 250" fill="none" xmlns="http://www.w3.org/2000/svg">
<g filter="url(#filter0_d_0_1)">
<path d="M125.078 32.078C126.527 29.1806 129.13 27.0833 131.461 24.9858C133.054 23.5524 137.084 23.922 139.085 23.922C142.592 23.922 145.54 25.2403 148.857 26.0693C152.661 27.0203 155.226 28.6876 157.702 31.6446C159.695 34.0249 161.648 35.9601 163.455 38.461C165.443 41.2134 165.963 44.6988 167.454 47.6808C168.697 50.1669 169.054 53.2698 169.838 55.9157C170.897 59.4903 169.759 62.7193 169.759 66.2979C169.759 71.1975 166.009 76.2771 163.376 80.2262C162.284 81.8635 160.098 83.8016 158.49 84.9149C156.522 86.2776 153.97 88.3849 151.674 89.1505C149.005 90.0401 146.814 92.1131 144.207 93.0906C141.395 94.1452 139.04 96.5046 136.347 97.6021C133.265 98.8574 130.043 102.549 130.043 105.837" stroke="#FF4141" stroke-width="3" stroke-linecap="round"/>
</g>
<g filter="url(#filter1_d_0_1)">
<path d="M131.816 48.0355C132.84 45.9859 135.137 43.8804 137.647 45.0213C139.544 45.8834 141.154 48.305 143.439 47.602C146.704 46.5973 146.756 50.8604 145.448 53C144.328 54.833 142.063 56.3011 141.39 58.3191" stroke="#FF4141" stroke-width="3" stroke-linecap="round"/>
</g>
<g filter="url(#filter2_d_0_1)">
<path d="M152.738 56.1915C152.561 59.198 150.183 62.7134 148.994 65.431C147.963 67.7894 147.602 68.6264 145.31 70.0016C142.921 71.4352 139.824 70.6408 137.214 71.3609C134.115 72.2156 130.474 71.7943 127.284 71.7943C122.19 71.7943 115.498 72.8521 110.677 70.8881C108.349 69.9397 104.575 69.2393 102.659 67.4602C101.209 66.1143 98.2588 65.4635 97.4972 63.5595C96.7588 61.7133 97.0638 59.5938 97.0638 57.6296C97.0638 54.8743 97.3763 52.0232 97.7928 49.316C98.4782 44.8606 98.8954 40.2414 102.304 36.9638C105.05 34.3231 109.178 34.4679 112.509 33.5162C115.076 32.7828 116.718 34.281 118.695 35.2695" stroke="#FF4141" stroke-width="3" stroke-linecap="round"/>
</g>
<g filter="url(#filter3_d_0_1)">
<path d="M129.688 42.3617C125.905 42.3617 122.123 42.3617 118.34 42.3617C116.116 42.3617 115.504 43.6544 115.504 45.829C115.504 47.8698 115.051 50.6165 116.646 52.212C118.671 54.2367 122.65 54.773 125.433 54.773C127.345 54.773 129.235 55.4823 131.106 55.4823C132.142 55.4823 134.671 56.1292 135.441 56.8219C136.893 58.1293 138.199 59.0509 138.199 61.156C138.199 62.6927 138.199 64.2293 138.199 65.766" stroke="#FF4141" stroke-width="3" stroke-linecap="round"/>
</g>
<g filter="url(#filter4_d_0_1)">
<path d="M174.5 48.5C176.219 48.4008 187 45 187 45C187 45 194.126 44.1028 198.5 46.8321C202.874 49.5614 203.671 54.2221 204.58 59.2723C205.178 62.5941 204.962 66.0071 204.962 69.3664C204.962 73.5644 205.179 77.8013 204.52 81.9643C203.731 86.9478 202.443 93.5231 198.5 97.5C194.19 101.847 186.411 105.673 181 108C174.74 110.692 172.477 112.908 167 117C164.494 118.872 160.287 121.914 159.5 125" stroke="#FF4141" stroke-width="3" stroke-linecap="round"/>
</g>
<g filter="url(#filter5_d_0_1)">
<path d="M172.95 126.759C170.029 126.759 166.824 128.676 165 130.5C161.879 142 152.155 138.956 150.5 140C132.348 137 132.348 140 117.06 135.604C116.194 135.355 115.119 134.694 114.243 135.092C113.045 135.636 111.046 136.264 110 137C106.572 139.412 108.256 143.336 108.057 147.326C107.83 151.856 105.818 160.116 110 164C111.007 163.496 126.289 165.064 128.5 161.511C131.255 160.509 139.21 156.929 142.02 156.113M142.02 156.113C145.097 155.219 138.846 156.625 142.02 156.113ZM142.02 156.113C143.92 155.806 146.782 154.668 148.66 155.679C153 158.016 156.911 161.303 161.879 161.944C166.846 162.585 175 163.284 182.151 161.511C187.702 161.511 191.752 159.299 196.276 155.679C200.5 150 200.965 149.5 204.156 144C207.348 140.234 207.348 131.718 207.348 126.601C207.348 121.762 208.32 116.877 204.156 113.638C202.031 111.985 198.904 111.511 196.276 111.511C195.048 111.511 193.203 111.097 192.454 112.22" stroke="#FF4141" stroke-width="3" stroke-linecap="round"/>
</g>
<g filter="url(#filter6_d_0_1)">
<path d="M98.4823 74.9858C98.4823 77.3273 99.3445 79.2808 99.5461 81.5658C99.6535 82.7829 101.844 84.4956 102.659 85.3483C103.832 86.5757 104.98 88.0397 106.087 89.3475C110.42 94.4687 113.647 100.705 119.266 104.596C121.735 106.305 124.72 107.302 127.186 109.028C129.506 110.653 131.535 112.709 133.864 114.348C137.326 116.784 141.264 119.186 144.227 122.149C146.005 123.927 148.482 126.669 148.482 129.418C148.482 130.052 148.768 133.104 148.128 133.142C147.089 133.203 145.098 131.721 144.582 130.817C144.227 130.197 143.478 130.128 143.163 129.418C142.844 128.701 142.825 128.265 142.099 127.901C140.135 126.919 138.809 125.133 136.642 124.474C133.013 123.369 129.871 123.213 125.984 123.213C120.361 123.213 115.154 121.506 110.184 118.957C104.899 116.247 99.06 113.756 97.6943 107.61C96.8543 103.83 96.3101 97.2935 92.6115 95.3562C89.0422 93.4865 85.0899 92.7857 81.658 90.7266C77.4634 88.2098 79.896 83.5616 78.3483 79.9503C77.7783 78.6204 77.5804 77.1008 77.2845 75.695C76.874 73.7451 76.1666 72.136 75.6296 70.2183C75.0983 68.3208 74.7234 66.5196 74.7234 64.5445C74.7234 62.7103 74.5 60.6544 74.7431 58.8314C75.2242 55.2233 75.8976 53.4162 79.5303 52.015C81.7544 51.1571 83.2067 51.1414 85.5193 51.5619C86.77 51.7893 88.0775 52.6454 89.2624 52.6454" stroke="#FF4141" stroke-width="3" stroke-linecap="round"/>
</g>
<g filter="url(#filter7_d_0_1)">
<path d="M89.617 42.3617C87.8389 40.7812 85.0559 40.7552 82.8991 40.0173C80.6189 39.2373 78.3993 38.1175 76.1418 37.2396C73.5077 36.2152 70.7796 35.0398 68.4192 33.4965C66.4157 32.1865 65.7748 31.7234 63.1986 31.7234C61.8019 31.7234 60.3316 31.8266 59.3176 32.7872C58.2229 33.8243 57.0191 34.8266 56.067 35.9984C55.0997 37.189 54.5491 38.5913 53.6241 39.7218C51.9995 41.7075 51.7142 43.8963 50.6099 46.1048C48.6622 50.0002 45.6457 53.089 43.4389 56.9007C41.1015 60.9381 39.8939 63.7576 43.5177 67.3814C44.6128 68.4765 46.137 69.055 47.2608 70.1789C48.4651 71.3832 49.1142 72.6081 49.9795 74.1978C50.6468 75.4237 52.2237 77.4526 52.383 78.8865C52.5993 80.8335 53.8362 83.3005 54.3333 85.2892C54.7138 86.8109 55.1448 88.3589 55.4957 89.8794C55.922 91.727 55.5111 93.6656 56.0079 95.5532C56.8263 98.6631 58.4703 101.125 60.342 103.532C61.9322 105.576 64.4293 106.89 66.2916 108.753C68.1018 110.563 70.4159 112.679 71.6895 114.879C72.5729 116.405 74.7234 118.117 74.7234 120.021C74.7234 123.594 75.3522 127.826 73.9354 131.014C73.2466 132.564 72.2411 134.083 72.2411 135.801C72.2411 137.702 74.1617 137.752 75.7872 137.752C77.9164 137.752 80.3926 139.292 82.3475 140.057C84.1071 140.745 85.7113 140.52 87.5682 140.589C89.5332 140.661 92.2569 141.006 94.0693 141.83C94.7495 142.139 96.297 142.321 97.0638 142.362C98.3021 142.427 98.2685 141.981 98.8369 141.022C100.212 138.702 98.3569 137.989 96.8865 136.846C95.0598 135.425 93.3849 133.562 91.4689 132.236C87.3414 129.378 82.8794 123.921 82.8794 118.603C82.8794 115.786 82.7574 113.236 83.963 110.624C84.48 109.504 86.088 106.901 87.4894 106.901" stroke="#FF4141" stroke-width="3" stroke-linecap="round"/>
</g>
<g filter="url(#filter8_d_0_1)">
<path d="M52.0284 113.993C49.7583 114.245 45.9694 116.663 44.3058 118.327C42.9716 119.661 43.0584 120.966 42.3751 122.504C40.0729 127.684 39.7234 132.87 41.528 138.284C42.3474 140.742 42.8085 143.862 42.8085 146.44C42.8085 148.94 42.8461 152.287 43.8723 154.596C44.9532 157.028 48.7408 156.191 50.9645 156.191C55.4272 156.191 59.3218 156.647 63.3759 158.674C67.9455 160.959 71.2657 163.284 76.4965 163.284C80.4794 163.284 84.1063 163.516 87.844 162.062C89.6629 161.355 91.3014 160.496 92.9858 159.56C94.0431 158.973 94.9086 158.156 96 157.61" stroke="#FF4141" stroke-width="3" stroke-linecap="round"/>
</g>
<g filter="url(#filter9_d_0_1)">
<path d="M164.085 171.794C164.085 169.477 168.133 170.018 169.562 170.928C171.358 172.07 172.865 172.912 174.29 174.631C179.095 180.43 185.661 184.65 191.035 189.879C193.294 192.077 196.842 194.233 199.763 195.376C202.864 196.589 205.789 198.39 209.199 198.39C210.575 198.39 213.451 199.099 210.519 199.099C208.656 199.099 206.771 199.454 204.865 199.454C199.954 199.454 195.752 198.816 191.469 196.341C185.577 192.937 178.628 193.131 172.438 190.864C170.315 190.087 168.05 189.481 166.035 188.441C164.613 187.707 162.604 186.339 161.071 185.998C160.263 185.819 159.725 184.794 159.121 184.206C158.067 183.181 156.775 182.411 155.732 181.369C153.84 179.477 152.957 176.585 150.787 174.986C149.81 174.266 149.073 173.225 148.049 172.582C147.419 172.187 145.917 171.983 145.645 171.44" stroke="#59FF60" stroke-width="3" stroke-linecap="round"/>
</g>
<g filter="url(#filter10_d_0_1)">
<path d="M132.525 173.567C132.525 176.234 134.069 179.709 135.362 181.999C137.702 186.144 138.866 190.07 140.366 194.568C143.449 203.819 146.137 214.195 146.355 224.001C146.441 227.881 146.672 232.016 145.98 235.821C145.717 237.269 144.823 239.076 143.321 239.505C142.027 239.875 141.983 233.471 141.823 232.433C141.029 227.27 138.605 222.962 136.248 218.248C135.369 216.49 133.934 214.762 133.254 212.949C132.889 211.976 132.038 211.136 131.461 210.27C130.4 208.678 129.817 206.899 128.782 205.285C124.591 198.752 120.287 191.796 117.316 184.58C115.437 180.018 115.504 175.195 115.504 170.376" stroke="#59FF60" stroke-width="3" stroke-linecap="round"/>
</g>
<g filter="url(#filter11_d_0_1)">
<path d="M101.319 168.603C95.921 168.603 90.8637 171.8 85.8936 173.745C82.799 174.956 79.4811 175.93 76.6147 177.547C75.0399 178.435 73.4328 179.247 71.8668 180.128C70.4667 180.915 69.1016 180.738 67.6509 181.191C65.518 181.858 62.5953 181.369 60.3617 181.369C56.6973 181.369 53.0679 181.014 49.3885 181.014C43.3207 181.014 37.253 181.014 31.1852 181.014C29.0574 181.014 22.8381 181.754 24.8022 180.935C25.8057 180.517 26.6528 179.841 27.7376 179.399C29.2797 178.77 30.8013 178.25 32.3475 177.645C38.125 175.385 45.1694 175.134 51.26 174.119C58.0333 172.99 67.3149 173.884 72.5957 168.603" stroke="#59FF60" stroke-width="3" stroke-linecap="round"/>
</g>
<defs>
<filter id="filter0_d_0_1" x="119.578" y="22.3799" width="56.2112" height="92.957" filterUnits="userSpaceOnUse" color-interpolation-filters="sRGB">
<feFlood flood-opacity="0" result="BackgroundImageFix"/>
<feColorMatrix in="SourceAlpha" type="matrix" values="0 0 0 0 0 0 0 0 0 0 0 0 0 0 0 0 0 0 127 0" result="hardAlpha"/>
<feOffset dy="4"/>
<feGaussianBlur stdDeviation="2"/>
<feComposite in2="hardAlpha" operator="out"/>
<feColorMatrix type="matrix" values="0 0 0 0 1 0 0 0 0 0 0 0 0 0 0 0 0 0 0.81 0"/>
<feBlend mode="normal" in2="BackgroundImageFix" result="effect1_dropShadow_0_1"/>
<feBlend mode="normal" in="SourceGraphic" in2="effect1_dropShadow_0_1" result="shape"/>
</filter>
<filter id="filter1_d_0_1" x="126.315" y="43.199" width="25.4331" height="24.6206" filterUnits="userSpaceOnUse" color-interpolation-filters="sRGB">
<feFlood flood-opacity="0" result="BackgroundImageFix"/>
<feColorMatrix in="SourceAlpha" type="matrix" values="0 0 0 0 0 0 0 0 0 0 0 0 0 0 0 0 0 0 127 0" result="hardAlpha"/>
<feOffset dy="4"/>
<feGaussianBlur stdDeviation="2"/>
<feComposite in2="hardAlpha" operator="out"/>
<feColorMatrix type="matrix" values="0 0 0 0 1 0 0 0 0 0 0 0 0 0 0 0 0 0 0.81 0"/>
<feBlend mode="normal" in2="BackgroundImageFix" result="effect1_dropShadow_0_1"/>
<feBlend mode="normal" in="SourceGraphic" in2="effect1_dropShadow_0_1" result="shape"/>
</filter>
<filter id="filter2_d_0_1" x="91.5014" y="31.8207" width="66.7362" height="49.7581" filterUnits="userSpaceOnUse" color-interpolation-filters="sRGB">
<feFlood flood-opacity="0" result="BackgroundImageFix"/>
<feColorMatrix in="SourceAlpha" type="matrix" values="0 0 0 0 0 0 0 0 0 0 0 0 0 0 0 0 0 0 127 0" result="hardAlpha"/>
<feOffset dy="4"/>
<feGaussianBlur stdDeviation="2"/>
<feComposite in2="hardAlpha" operator="out"/>
<feColorMatrix type="matrix" values="0 0 0 0 1 0 0 0 0 0 0 0 0 0 0 0 0 0 0.81 0"/>
<feBlend mode="normal" in2="BackgroundImageFix" result="effect1_dropShadow_0_1"/>
<feBlend mode="normal" in="SourceGraphic" in2="effect1_dropShadow_0_1" result="shape"/>
</filter>
<filter id="filter3_d_0_1" x="109.944" y="40.8617" width="33.7544" height="34.4043" filterUnits="userSpaceOnUse" color-interpolation-filters="sRGB">
<feFlood flood-opacity="0" result="BackgroundImageFix"/>
<feColorMatrix in="SourceAlpha" type="matrix" values="0 0 0 0 0 0 0 0 0 0 0 0 0 0 0 0 0 0 127 0" result="hardAlpha"/>
<feOffset dy="4"/>
<feGaussianBlur stdDeviation="2"/>
<feComposite in2="hardAlpha" operator="out"/>
<feColorMatrix type="matrix" values="0 0 0 0 1 0 0 0 0 0 0 0 0 0 0 0 0 0 0.81 0"/>
<feBlend mode="normal" in2="BackgroundImageFix" result="effect1_dropShadow_0_1"/>
<feBlend mode="normal" in="SourceGraphic" in2="effect1_dropShadow_0_1" result="shape"/>
</filter>
<filter id="filter4_d_0_1" x="154" y="43.3588" width="56.5009" height="91.1415" filterUnits="userSpaceOnUse" color-interpolation-filters="sRGB">
<feFlood flood-opacity="0" result="BackgroundImageFix"/>
<feColorMatrix in="SourceAlpha" type="matrix" values="0 0 0 0 0 0 0 0 0 0 0 0 0 0 0 0 0 0 127 0" result="hardAlpha"/>
<feOffset dy="4"/>
<feGaussianBlur stdDeviation="2"/>
<feComposite in2="hardAlpha" operator="out"/>
<feColorMatrix type="matrix" values="0 0 0 0 1 0 0 0 0 0 0 0 0 0 0 0 0 0 0.81 0"/>
<feBlend mode="normal" in2="BackgroundImageFix" result="effect1_dropShadow_0_1"/>
<feBlend mode="normal" in="SourceGraphic" in2="effect1_dropShadow_0_1" result="shape"/>
</filter>
<filter id="filter5_d_0_1" x="101.875" y="109.936" width="111.071" height="63.8704" filterUnits="userSpaceOnUse" color-interpolation-filters="sRGB">
<feFlood flood-opacity="0" result="BackgroundImageFix"/>
<feColorMatrix in="SourceAlpha" type="matrix" values="0 0 0 0 0 0 0 0 0 0 0 0 0 0 0 0 0 0 127 0" result="hardAlpha"/>
<feOffset dy="4"/>
<feGaussianBlur stdDeviation="2"/>
<feComposite in2="hardAlpha" operator="out"/>
<feColorMatrix type="matrix" values="0 0 0 0 1 0 0 0 0 0 0 0 0 0 0 0 0 0 0.81 0"/>
<feBlend mode="normal" in2="BackgroundImageFix" result="effect1_dropShadow_0_1"/>
<feBlend mode="normal" in="SourceGraphic" in2="effect1_dropShadow_0_1" result="shape"/>
</filter>
<filter id="filter6_d_0_1" x="69.1297" y="49.7926" width="84.9161" height="92.851" filterUnits="userSpaceOnUse" color-interpolation-filters="sRGB">
<feFlood flood-opacity="0" result="BackgroundImageFix"/>
<feColorMatrix in="SourceAlpha" type="matrix" values="0 0 0 0 0 0 0 0 0 0 0 0 0 0 0 0 0 0 127 0" result="hardAlpha"/>
<feOffset dy="4"/>
<feGaussianBlur stdDeviation="2"/>
<feComposite in2="hardAlpha" operator="out"/>
<feColorMatrix type="matrix" values="0 0 0 0 1 0 0 0 0 0 0 0 0 0 0 0 0 0 0.81 0"/>
<feBlend mode="normal" in2="BackgroundImageFix" result="effect1_dropShadow_0_1"/>
<feBlend mode="normal" in="SourceGraphic" in2="effect1_dropShadow_0_1" result="shape"/>
</filter>
<filter id="filter7_d_0_1" x="35.7231" y="30.2234" width="69.0958" height="121.644" filterUnits="userSpaceOnUse" color-interpolation-filters="sRGB">
<feFlood flood-opacity="0" result="BackgroundImageFix"/>
<feColorMatrix in="SourceAlpha" type="matrix" values="0 0 0 0 0 0 0 0 0 0 0 0 0 0 0 0 0 0 127 0" result="hardAlpha"/>
<feOffset dy="4"/>
<feGaussianBlur stdDeviation="2"/>
<feComposite in2="hardAlpha" operator="out"/>
<feColorMatrix type="matrix" values="0 0 0 0 1 0 0 0 0 0 0 0 0 0 0 0 0 0 0.81 0"/>
<feBlend mode="normal" in2="BackgroundImageFix" result="effect1_dropShadow_0_1"/>
<feBlend mode="normal" in="SourceGraphic" in2="effect1_dropShadow_0_1" result="shape"/>
</filter>
<filter id="filter8_d_0_1" x="34.8789" y="112.493" width="66.6215" height="60.3064" filterUnits="userSpaceOnUse" color-interpolation-filters="sRGB">
<feFlood flood-opacity="0" result="BackgroundImageFix"/>
<feColorMatrix in="SourceAlpha" type="matrix" values="0 0 0 0 0 0 0 0 0 0 0 0 0 0 0 0 0 0 127 0" result="hardAlpha"/>
<feOffset dy="4"/>
<feGaussianBlur stdDeviation="2"/>
<feComposite in2="hardAlpha" operator="out"/>
<feColorMatrix type="matrix" values="0 0 0 0 1 0 0 0 0 0 0 0 0 0 0 0 0 0 0.81 0"/>
<feBlend mode="normal" in2="BackgroundImageFix" result="effect1_dropShadow_0_1"/>
<feBlend mode="normal" in="SourceGraphic" in2="effect1_dropShadow_0_1" result="shape"/>
</filter>
<filter id="filter9_d_0_1" x="140.145" y="168.648" width="77.1446" height="40.306" filterUnits="userSpaceOnUse" color-interpolation-filters="sRGB">
<feFlood flood-opacity="0" result="BackgroundImageFix"/>
<feColorMatrix in="SourceAlpha" type="matrix" values="0 0 0 0 0 0 0 0 0 0 0 0 0 0 0 0 0 0 127 0" result="hardAlpha"/>
<feOffset dy="4"/>
<feGaussianBlur stdDeviation="2"/>
<feComposite in2="hardAlpha" operator="out"/>
<feColorMatrix type="matrix" values="0 0 0 0 0.08 0 0 0 0 1 0 0 0 0 0 0 0 0 0.81 0"/>
<feBlend mode="normal" in2="BackgroundImageFix" result="effect1_dropShadow_0_1"/>
<feBlend mode="normal" in="SourceGraphic" in2="effect1_dropShadow_0_1" result="shape"/>
</filter>
<filter id="filter10_d_0_1" x="110.003" y="168.876" width="41.9591" height="80.1468" filterUnits="userSpaceOnUse" color-interpolation-filters="sRGB">
<feFlood flood-opacity="0" result="BackgroundImageFix"/>
<feColorMatrix in="SourceAlpha" type="matrix" values="0 0 0 0 0 0 0 0 0 0 0 0 0 0 0 0 0 0 127 0" result="hardAlpha"/>
<feOffset dy="4"/>
<feGaussianBlur stdDeviation="2"/>
<feComposite in2="hardAlpha" operator="out"/>
<feColorMatrix type="matrix" values="0 0 0 0 0.08 0 0 0 0 1 0 0 0 0 0 0 0 0 0.81 0"/>
<feBlend mode="normal" in2="BackgroundImageFix" result="effect1_dropShadow_0_1"/>
<feBlend mode="normal" in="SourceGraphic" in2="effect1_dropShadow_0_1" result="shape"/>
</filter>
<filter id="filter11_d_0_1" x="18.9237" y="167.103" width="87.8954" height="23.9392" filterUnits="userSpaceOnUse" color-interpolation-filters="sRGB">
<feFlood flood-opacity="0" result="BackgroundImageFix"/>
<feColorMatrix in="SourceAlpha" type="matrix" values="0 0 0 0 0 0 0 0 0 0 0 0 0 0 0 0 0 0 127 0" result="hardAlpha"/>
<feOffset dy="4"/>
<feGaussianBlur stdDeviation="2"/>
<feComposite in2="hardAlpha" operator="out"/>
<feColorMatrix type="matrix" values="0 0 0 0 0.08 0 0 0 0 1 0 0 0 0 0 0 0 0 0.81 0"/>
<feBlend mode="normal" in2="BackgroundImageFix" result="effect1_dropShadow_0_1"/>
<feBlend mode="normal" in="SourceGraphic" in2="effect1_dropShadow_0_1" result="shape"/>
</filter>
</defs>
</svg>